<svg xmlns="http://www.w3.org/2000/svg" viewBox="0 0 108 108" width="1024" height="1024">
  <!-- Background: brand blue -->
  <rect width="108" height="108" fill="#2563EB"/>

  <!-- White outline blob -->
  <path fill="#FFFFFF" d="M54,18 C38,16 20,26 18,42 C16,56 20,72 34,80 C44,86 56,88 68,84 C80,80 90,70 90,58 C92,44 86,28 74,22 C66,18 60,18 54,18 Z"/>

  <!-- Outer dark pink ring -->
  <path fill="#E07090" d="M54,21 C39,19 22,29 20,44 C18,58 22,73 35,81 C45,87 57,88 69,84 C80,80 89,70 89,58 C91,45 85,30 74,24 C66,20 60,20 54,21 Z"/>

  <!-- Inner light pink center -->
  <path fill="#F4A8BE" d="M54,27 C41,25 26,34 24,48 C22,60 26,74 38,80 C47,85 57,86 67,82 C77,78 85,69 85,58 C87,46 82,33 71,28 C64,25 59,26 54,27 Z"/>

  <!-- Stoma opening -->
  <path fill="#C0607A" d="M44,51 C46,48 50,47 54,48 C58,49 61,51 62,54 C63,57 61,60 58,61 C55,62 51,61 48,59 C45,57 43,54 44,51 Z"/>

  <!-- Crease lines -->
  <path stroke="#A04060" stroke-width="1.2" fill="none" d="M44,54 C46,52 50,51 54,52"/>
  <path stroke="#A04060" stroke-width="1.0" fill="none" d="M56,57 C58,59 60,62 59,65"/>
  <path stroke="#A04060" stroke-width="1.0" fill="none" d="M50,58 C48,60 46,63 47,66"/>
</svg>
